<?xml version="1.0" encoding="UTF-8" standalone="no"?>
<svg xmlns="http://www.w3.org/2000/svg" xmlns:xlink="http://www.w3.org/1999/xlink" style="isolation:isolate" viewBox="0 0 512 512" width="512pt" height="512pt"><defs><clipPath id="_clipPath_ZUTIbuj3RQ1Vh7utYCkRJ0pe2xfj1htW"><rect width="512" height="512"/></clipPath></defs><g clip-path="url(#_clipPath_ZUTIbuj3RQ1Vh7utYCkRJ0pe2xfj1htW)"><rect width="512" height="512" style="fill:rgb(0,0,0)" fill-opacity="0"/><g><path d=" M 364.552 401.914 L 364.552 113.93 C 364.939 91.235 380.292 72.83 399.566 71.967 C 438.905 69.077 458.578 67.629 458.578 67.629 C 470.507 80.88 476.997 101.746 478.036 130.207 L 477.17 328.641 L 364.552 401.914 Z " fill-rule="evenodd" fill="rgb(255,210,183)"/><path d=" M 252.008 455.548 L 252.008 409.88 L 313.866 374.185 L 313.866 380.144 L 313.895 380.144 C 313.889 381.899 314.34 383.689 315.287 385.329 C 318.151 390.272 324.491 391.958 329.433 389.094 L 410.866 342.104 L 465.472 310.588 L 486.224 298.619 L 506.157 287.111 C 506.168 287.105 506.168 287.105 506.18 287.099 L 507.409 286.395 C 510.181 284.53 512 281.366 512 277.786 L 512 119.597 L 511.959 119.597 C 512.035 88.504 504.638 65.852 489.487 50.625 C 474.26 35.33 451.978 28.21 422.299 28.21 L 246.147 28.21 L 246.147 28.227 C 245.772 28.227 245.396 28.25 245.01 28.291 C 231.81 29.769 219.731 36.294 208.783 47.859 C 199.81 57.341 191.622 70.211 184.231 86.465 L 48.816 86.465 L 48.816 86.5 C 44.012 86.431 39.577 86.777 35.512 87.533 C 23.947 89.699 15.095 95.08 8.963 103.672 C 3.212 111.716 0.232 122.323 0.013 135.465 C -0.114 143.196 0.7 151.829 2.461 161.362 C 2.502 161.673 2.559 161.991 2.634 162.309 C 13.311 207.994 34.149 242.107 66.115 264.967 C 97.492 287.399 139.193 298.555 192.136 298.728 C 202.737 301.465 211.929 307.349 218.76 315.265 C 225.718 323.326 230.222 333.535 231.256 344.702 L 231.256 473.465 L 231.302 473.465 C 231.296 475.209 231.741 476.982 232.67 478.61 C 235.517 483.553 241.828 485.256 246.782 482.415 L 480.161 347.739 C 483.735 346.105 486.224 342.496 486.224 338.304 L 486.224 320.393 L 465.472 332.368 L 421.565 357.705 L 252.008 455.548 Z  M 191.016 107.212 L 242.255 107.212 C 244.744 106.196 246.367 103.776 246.367 101.091 C 246.367 98.406 244.744 95.987 242.255 94.976 C 226.261 89.716 218.264 87.089 218.264 87.089 C 209.424 82.845 213.148 75.656 217.074 70.205 C 219.268 67.168 221.509 64.437 223.784 62.035 C 231.013 54.39 238.635 50.03 246.632 48.951 L 422.299 48.951 C 446.325 48.951 463.768 54.119 474.815 65.211 C 485.93 76.378 491.352 94.243 491.294 119.597 L 491.248 119.597 L 491.248 271.821 L 486.224 274.719 L 486.224 116.733 C 486.224 93.983 480.519 78.041 469.525 67.428 C 458.508 56.804 442.964 52.294 423.159 52.294 L 369.777 52.294 C 351.335 52.294 337.633 58.807 328.209 69.992 C 318.434 81.603 313.866 97.881 313.866 116.733 L 313.866 350.228 L 252.008 385.929 L 252.008 344.315 C 252.008 343.876 251.979 343.438 251.927 343.01 C 250.524 327.408 244.201 313.089 234.408 301.737 C 224.54 290.298 211.144 281.902 195.704 278.271 C 194.919 278.086 194.134 277.999 193.354 277.988 C 144.222 277.988 106.09 268.114 78.108 248.112 C 50.473 228.347 32.325 198.264 22.815 157.608 L 22.809 157.585 C 20.58 145.471 19.183 141.735 41.974 137.11 C 71.098 130.06 44.15 107.212 67.813 107.212 L 191.016 107.212 Z  M 334.624 362.203 L 334.624 116.733 C 334.624 102.587 337.609 90.882 344.019 83.278 C 349.47 76.805 357.929 73.04 369.777 73.04 L 423.159 73.04 C 437.606 73.04 448.409 75.812 455.177 82.337 C 461.956 88.879 465.472 99.965 465.472 116.733 L 465.472 286.695 L 334.624 362.203 Z " fill-rule="evenodd" fill="rgb(240,99,17)"/><path d=" M 72.005 186.069 C 76.584 186.069 80.302 189.782 80.302 194.361 C 80.302 198.94 76.584 202.652 72.005 202.652 C 67.426 202.652 63.708 198.94 63.708 194.361 C 63.708 189.782 67.426 186.069 72.005 186.069 Z " fill-rule="evenodd" fill="rgb(240,99,17)"/><path d=" M 87.081 206.608 C 91.666 206.608 95.378 210.321 95.378 214.899 C 95.378 219.484 91.666 223.191 87.081 223.191 C 82.502 223.191 78.789 219.484 78.789 214.899 C 78.789 210.321 82.502 206.608 87.081 206.608 Z " fill-rule="evenodd" fill="rgb(240,99,17)"/><path d=" M 101.609 186.069 C 106.188 186.069 109.901 189.782 109.901 194.361 C 109.901 198.94 106.188 202.652 101.609 202.652 C 97.024 202.652 93.312 198.94 93.312 194.361 C 93.312 189.782 97.024 186.069 101.609 186.069 Z " fill-rule="evenodd" fill="rgb(240,99,17)"/></g></g></svg>
